HIERARCHY
ROOT Hips
{
  OFFSET 0 0 0
  CHANNELS 6 Xposition Yposition Zposition Zrotation Yrotation Xrotation
  JOINT LeftThigh
  {
    OFFSET 8.409438 0 -5.917753
    CHANNELS 3 Zrotation Yrotation Xrotation
    JOINT LeftLeg
    {
      OFFSET 0 0 -42.358652
      CHANNELS 3 Zrotation Yrotation Xrotation
      JOINT LeftFoot
      {
        OFFSET 0 0 -39.357303
        CHANNELS 3 Zrotation Yrotation Xrotation
      }
    }
  }
  JOINT RightThigh
  {
    OFFSET -8.409438 0 -5.917753
    CHANNELS 3 Zrotation Yrotation Xrotation
    JOINT RightLeg
    {
      OFFSET 0 0 -42.358652
      CHANNELS 3 Zrotation Yrotation Xrotation
      JOINT RightFoot
      {
        OFFSET 0 0 -39.357303
        CHANNELS 3 Zrotation Yrotation Xrotation
      }
    }
  }
  JOINT SpineLow
  {
    OFFSET 0 0 4.719101
    CHANNELS 3 Zrotation Yrotation Xrotation
    JOINT SpineMid
    {
      OFFSET 0 0 12.899191
      CHANNELS 3 Zrotation Yrotation Xrotation
      JOINT Chest
      {
        OFFSET 0 0 12.899191
        CHANNELS 3 Zrotation Yrotation Xrotation
        JOINT LeftShoulder
        {
          OFFSET 7.550562 1.41573 9.438202
          CHANNELS 3 Zrotation Yrotation Xrotation
          JOINT LeftArm
          {
            OFFSET 9.155056 0 4.247191
            CHANNELS 3 Zrotation Yrotation Xrotation
            JOINT LeftForearm
            {
              OFFSET 0 0 25.771955
              CHANNELS 3 Zrotation Yrotation Xrotation
              JOINT LeftHand
              {
                OFFSET 0 0 25.197169
                CHANNELS 3 Zrotation Yrotation Xrotation
              }
            }
          }
        }
        JOINT RightShoulder
        {
          OFFSET -7.550562 1.41573 9.438202
          CHANNELS 3 Zrotation Yrotation Xrotation
          JOINT RightArm
          {
            OFFSET -9.155056 0 4.247191
            CHANNELS 3 Zrotation Yrotation Xrotation
            JOINT RightForearm
            {
              OFFSET 0 0 -25.771955
              CHANNELS 3 Zrotation Yrotation Xrotation
              JOINT RightHand
              {
                OFFSET 0 0 -25.197169
                CHANNELS 3 Zrotation Yrotation Xrotation
              }
            }
          }
        }
        JOINT Neck
        {
          OFFSET 0 0 15.101124
          CHANNELS 3 Zrotation Yrotation Xrotation
          JOINT Head
          {
            OFFSET 0 0 11.325843
            CHANNELS 3 Zrotation Yrotation Xrotation
            End Site
            {
              OFFSET 0 0 14.157303
            }
          }
        }
      }
    }
  }
}
MOTION
Frames: 7
Frame Time: 0.0
0.0  101.685394  0.0  2.732624  38.381067  -93.148893  -10.466469  -14.924442  -3.395702  -15.675265  11.399016  20.598929  3.377949  3.328262  3.849037  -39.5156  17.057144  -9.380296  -18.006886  9.325807  19.02067  18.432478  5.798464  -2.557604  -0.289588  0.683993  1.65748  -0.744447  1.888431  4.523423  -0.744447  1.888431  4.523422  11.341971  14.323734  15.070126  166.60292  17.356828  -173.352621  -24.259342  -25.86965  125.609135  71.211705  -3.954886  0.754114  26.777856  -10.156064  24.64978  82.970708  69.797688  14.955702  -79.585803  69.618876  -85.49358  75.300874  10.690431  36.131648  -10.692043  -1.640378  -5.786864  -8.03487  -1.129558  -4.370145  
0.0  101.685394  0.0  2.807309  39.035734  -92.87079  -11.09964  -15.115603  -4.053819  -15.948539  11.782282  20.762286  3.552783  3.418455  3.894614  -39.564401  16.95069  -9.618744  -17.730928  9.514563  19.547876  19.039314  5.770032  -2.674897  -0.279823  0.70975  1.658445  -0.715982  1.958141  4.526129  -0.715982  1.958141  4.526129  11.17547  14.437532  14.598467  166.936135  18.329126  -173.031732  -23.517424  -24.9975  125.276256  71.21061  -3.504244  0.152247  26.957637  -10.249603  24.553564  81.376127  70.105721  13.244855  -80.182089  69.997325  -86.19247  75.531792  10.540019  36.171134  -11.183226  -1.499815  -5.880576  -8.402292  -1.017751  -4.439396  
0.0  101.685394  0.0  2.773549  39.51766  -92.726445  -11.433691  -15.340198  -4.629566  -16.101723  12.126467  21.225523  3.565583  3.448858  3.797602  -38.976835  16.765539  -9.647203  -17.51476  9.746895  20.16492  19.422209  5.801626  -2.754105  -0.263364  0.71182  1.674125  -0.670395  1.962822  4.569474  -0.670395  1.962822  4.569474  11.050947  14.667651  14.121634  166.605225  19.085384  -172.953152  -23.393711  -24.563453  125.214097  71.13797  -3.241881  -0.56256  27.094573  -10.263885  24.463561  80.064833  70.387159  11.722231  -80.754257  70.291108  -86.883491  75.794076  10.378694  36.151361  -11.357717  -1.484407  -6.002789  -8.533365  -1.002252  -4.53129  
0.0  101.685394  0.0  3.225623  41.000433  -91.92372  -12.610734  -15.152117  -5.717635  -16.509422  12.454515  21.657753  3.673509  3.539835  3.743821  -39.63714  16.738898  -10.432775  -18.241758  10.161578  20.643482  20.487144  6.000164  -2.631926  -0.424491  0.764302  1.640821  -1.108186  2.116764  4.472848  -1.108186  2.116764  4.472848  10.929592  14.891583  13.634571  166.586748  20.227501  -172.518318  -22.837416  -24.196372  124.685434  71.128666  -3.257315  -1.403598  27.324965  -10.324251  24.397291  78.823597  70.679747  10.32797  -81.180755  70.457981  -87.462644  76.08839  10.279692  36.046147  -11.871414  -1.331929  -6.177663  -8.917702  -0.879421  -4.661004  
0.0  101.685394  0.0  3.105479  41.26375  -91.883915  -12.501984  -15.313942  -6.264566  -16.80125  12.699254  22.248337  3.603404  3.599102  3.595098  -38.708763  16.509608  -10.614301  -17.841667  10.326769  21.445936  19.694434  6.154612  -2.58991  -0.411322  0.74228  1.654721  -1.073237  2.055932  4.511576  -1.073237  2.055932  4.511576  10.849187  15.260739  13.305551  166.210573  21.140044  -172.23875  -22.7802  -24.691892  124.338702  71.07626  -3.551942  -2.334526  27.453447  -10.308066  24.354315  77.949308  70.84918  9.180929  -81.483828  70.476142  -87.968393  76.329173  10.283237  35.834263  -11.986477  -1.30394  -6.297968  -9.004039  -0.854901  -4.75102  
0.0  101.685394  0.0  2.987021  41.520398  -91.819438  -12.296629  -15.408266  -6.910161  -16.847183  12.856032  23.037114  3.33664  3.632361  3.454437  -37.944452  16.252584  -10.972923  -17.418169  10.422113  22.375375  18.473629  6.386753  -2.517274  -0.456187  0.76984  1.681242  -1.193117  2.134738  4.58226  -1.193117  2.134738  4.58226  10.972473  15.333612  12.850863  165.85828  22.058088  -171.8406  -22.73782  -25.559848  123.886623  71.129961  -3.985064  -3.248216  28.017108  -10.534402  24.069785  75.773278  71.054227  8.123327  -81.63584  69.094804  -88.856425  76.585716  10.343024  35.615804  -12.020119  -1.425931  -6.436552  -9.030826  -0.943382  -4.857447  
0.0  101.685394  0.0  2.733302  41.59833  -91.815573  -11.899675  -15.614799  -7.530922  -16.754354  12.958703  23.858872  2.857795  3.675314  3.238007  -37.275745  15.877706  -11.473328  -17.337115  10.638334  23.381428  17.91283  6.699521  -2.417444  -0.454681  0.724384  1.679111  -1.192187  2.010422  4.577172  -1.192187  2.010422  4.577172  10.956427  15.777939  12.730117  165.439952  23.095968  -171.374014  -22.709831  -26.493325  123.386286  71.338939  -4.502169  -3.98645  28.099269  -10.483979  24.008669  75.409933  70.98295  7.281981  -81.737404  68.917574  -89.249456  76.780277  10.463971  35.391786  -12.039188  -1.363825  -6.508905  -9.044704  -0.89515  -4.910581  
